<?xml version="1.0" encoding="UTF-8" standalone="no"?>
<svg
   xmlns:dc="http://purl.org/dc/elements/1.1/"
   xmlns:cc="http://creativecommons.org/ns#"
   xmlns:rdf="http://www.w3.org/1999/02/22-rdf-syntax-ns#"
   xmlns:svg="http://www.w3.org/2000/svg"
   xmlns="http://www.w3.org/2000/svg"
   viewBox="0 0 534.32001 209.17332"
   height="209.17332"
   width="534.32001"
   xml:space="preserve"
   id="svg2"
   version="1.1"><metadata
     id="metadata8"><rdf:RDF><cc:Work
         rdf:about=""><dc:format>image/svg+xml</dc:format><dc:type
           rdf:resource="http://purl.org/dc/dcmitype/StillImage" /></cc:Work></rdf:RDF></metadata><defs
     id="defs6" /><g
     transform="matrix(1.3333333,0,0,-1.3333333,0,209.17333)"
     id="g10"><g
       transform="scale(0.1)"
       id="g12"><path
         id="path14"
         style="fill:#ffffff;fill-opacity:1;fill-rule:nonzero;stroke:none"
         d="M 0,1568.83 V 0 H 1568.75 V 1568.83 H 0" /><path
         id="path16"
         style="fill:#231f20;fill-opacity:1;fill-rule:nonzero;stroke:none"
         d="M 471.25,457.07 317.5,698.023 h -1.816 V 457.07 H 153.008 v 626.68 h 243.476 c 123.789,0 217.559,-59.04 217.559,-192.812 0,-86.422 -48.223,-161.313 -137.051,-177.133 L 673.906,457.07 Z M 331.563,959.023 H 315.684 V 802.871 h 15.879 c 53.281,0 113.125,9.926 113.125,77.988 0,68.149 -59.844,78.164 -113.125,78.164" /><path
         id="path18"
         style="fill:#231f20;fill-opacity:1;fill-rule:nonzero;stroke:none"
         d="m 1177.01,457.07 h -151.17 v 47.442 h -1.76 C 997.461,462.07 945.195,443 895.352,443 769.023,443 680.078,548.488 680.078,670.66 c 0,122.192 87.305,226.981 213.633,226.981 48.867,0 100.469,-18.301 132.129,-55.762 v 41.504 h 151.17 z M 933.516,766.285 c -61.485,0 -97.227,-44.043 -97.227,-96.445 0,-53.906 35.742,-95.547 97.227,-95.547 61.523,0 97.244,41.641 97.244,95.547 0,52.402 -35.721,96.445 -97.244,96.445" /><path
         id="path20"
         style="fill:#231f20;fill-opacity:1;fill-rule:nonzero;stroke:none"
         d="m 1346.25,962.363 c -46.45,0 -84.63,38.227 -84.63,84.807 0,46.56 38.18,84.75 84.63,84.75 46.56,0 84.8,-38.19 84.8,-84.75 0,-46.58 -38.24,-84.807 -84.8,-84.807 z m 75.59,-505.293 h -151.18 v 426.313 h 151.18 V 457.07" /><path
         id="path22"
         style="fill:#ffffff;fill-opacity:1;fill-rule:nonzero;stroke:none"
         d="m 2021.61,450.68 h -164.64 v 493.914 h -136.08 v 139.446 h 436.8 V 944.594 H 2021.61 V 450.68" /><path
         id="path24"
         style="fill:#ffffff;fill-opacity:1;fill-rule:nonzero;stroke:none"
         d="m 2437.45,728.707 c -7.56,41.172 -45.37,68.047 -86.53,68.047 -44.52,0 -81.48,-23.516 -90.72,-68.047 z m 141.95,-88.191 h -321.72 c 0,-62.161 32.76,-95.754 95.76,-95.754 32.76,0 56.28,10.918 73.09,39.472 h 146.99 C 2549.17,482.59 2452.56,436.391 2354.28,436.391 c -142.79,0 -249.47,80.64 -249.47,229.328 0,143.633 98.27,230.156 238.55,230.156 149.52,0 236.04,-92.402 236.04,-239.395 v -15.964" /><path
         id="path26"
         style="fill:#ffffff;fill-opacity:1;fill-rule:nonzero;stroke:none"
         d="m 2944.79,741.316 c -22.68,16.797 -49.56,30.243 -78.96,30.243 -58.8,0 -105,-45.371 -105,-105 0,-62.168 44.52,-105.84 107.51,-105.84 26.89,0 56.29,10.918 76.45,29.394 V 460.762 c -33.6,-16.801 -70.57,-24.371 -107.52,-24.371 -127.68,0 -234.35,94.929 -234.35,225.129 0,138.593 105.83,234.355 241.07,234.355 35.27,0 70.56,-8.402 100.8,-25.199 v -129.36" /><path
         id="path28"
         style="fill:#ffffff;fill-opacity:1;fill-rule:nonzero;stroke:none"
         d="M 3177.47,1147.87 V 826.992 h 1.68 c 35.27,47.043 78.11,68.883 137.75,68.883 109.2,0 162.11,-72.238 162.11,-181.445 V 450.68 h -152.87 v 220.918 c 0,50.39 -7.56,102.476 -68.88,102.476 -60.48,0 -79.79,-52.086 -79.79,-102.476 V 450.68 h -152.89 v 697.19 h 152.89" /><path
         id="path30"
         style="fill:#ffffff;fill-opacity:1;fill-rule:nonzero;stroke:none"
         d="m 3865.42,728.707 c -7.56,41.172 -45.36,68.047 -86.53,68.047 -44.51,0 -81.48,-23.516 -90.72,-68.047 z m 141.95,-88.191 h -321.72 c 0,-62.161 32.77,-95.754 95.76,-95.754 32.77,0 56.29,10.918 73.09,39.472 h 146.99 C 3977.13,482.59 3880.53,436.391 3782.25,436.391 c -142.79,0 -249.47,80.64 -249.47,229.328 0,143.633 98.28,230.156 238.55,230.156 149.53,0 236.04,-92.402 236.04,-239.395 v -15.964" /></g></g></svg>
